# xmcd
#
# Track frame offsets:
#	150
#	21225
#	38250
#	53740
#	75588
#	92375
#	108995
#	123630
#	139187
#	154662
#	171738
#	192943
#	210572
#	230713
#	248463
#	264288
#	282100
#	299688
#	315363
#	331102
#
# Disc length: 4654 seconds
#
# Revision: 0
# Processed by: cddbd v1.5.2PL0 Copyright (c) Steve Scherf et al.
# Submitted via: EasyCDDAExtractor 15.3.0.1
#
DISCID=0e122c14
DTITLE=Varios Artistas - Super Estrellas Del Pop
DYEAR=2004
DGENRE=Latin
TTITLE0=Marco Antonio Solis - Cuando Te Acuerdes De Mi
TTITLE1=Conjunto Primavera - Necesito Decirte
TTITLE2=Jennifer Peña - El Dolor De Tu Presencia
TTITLE3=Noelia - Tu
TTITLE4=Mariana - Me Equivoque
TTITLE5=Graciela Beltran - Corazon Encadenado (A Duo Con Conjunto Primavera)
TTITLE6=Rogelio Martinez - It's Ok
TTITLE7=Ana Barbara - Lo Mejor Que Te Escuche Decir
TTITLE8=Area 305 - Si No Estas
TTITLE9=Pilar Montenegro - Quitame Ese Hombre
TTITLE10=Marco Antonio Solis - O Me Voy O Te Vas
TTITLE11=Conjunto Primavera - Vuelve Conmigo
TTITLE12=Jennifer Peña - Vivo Y Muero En Tu Piel
TTITLE13=Noelia - Clavame Tu Amor
TTITLE14=Mariana - Que No Me Faltes Tu
TTITLE15=Graciela Beltran - Que Pena
TTITLE16=Rogelio Martinez - No Me Importa Tu Olvido
TTITLE17=Ana Barbara - Ahora Soy De Hielo
TTITLE18=Area 305 - Hay Que Cambiar
TTITLE19=Pilar Montenegro - Alguien Que Una Vez Ame
EXTD=
EXTT0=
EXTT1=
EXTT2=
EXTT3=
EXTT4=
EXTT5=
EXTT6=
EXTT7=
EXTT8=
EXTT9=
EXTT10=
EXTT11=
EXTT12=
EXTT13=
EXTT14=
EXTT15=
EXTT16=
EXTT17=
EXTT18=
EXTT19=
PLAYORDER=
